<svg xmlns="http://www.w3.org/2000/svg" width="256" height="256" preserveAspectRatio="xMidYMid meet" version="1.0" viewBox="0 0 192 192"><metadata>Created by potrace 1.15, written by Peter Selinger 2001-2017</metadata><g fill="#000" stroke="none"><path d="M823 1648 c-6 -7 -76 -128 -157 -268 -80 -140 -240 -417 -354 -615 l-208 -360 98 -3 c54 -1 98 -7 98 -12 0 -5 -15 -35 -34 -67 l-34 -58 780 -3 c430 -1 783 -1 785 1 2 2 -87 161 -198 353 -423 734 -571 989 -578 996 -4 4 -24 -22 -45 -58 -21 -37 -42 -62 -46 -58 -5 5 -29 44 -53 87 -33 57 -47 74 -54 65z m448 -593 c379 -658 419 -727 419 -731 0 -2 -304 -4 -675 -4 l-676 0 23 40 23 40 184 2 185 3 197 340 c109 187 198 345 198 352 1 6 -39 81 -88 165 l-89 153 21 38 c11 20 24 34 28 30 4 -5 116 -197 250 -428z" transform="translate(0.000000,192.000000) scale(0.100000,-0.100000)"/><path d="M1171 987 c-38 -68 -209 -363 -277 -479 l-63 -108 364 0 364 0 -171 298 c-94 163 -176 304 -182 314 -10 14 -15 11 -35 -25z" transform="translate(0.000000,192.000000) scale(0.100000,-0.100000)"/></g></svg>